<svg xmlns="http://www.w3.org/2000/svg" xmlns:xlink="http://www.w3.org/1999/xlink" viewBox="0 0 90 90"><defs><style>.cls-1{fill:url(#linear-gradient);}.cls-2{fill:url(#linear-gradient-2);}</style><linearGradient id="linear-gradient" x1="41.75" y1="64.63" x2="49.96" y2="94.27" gradientUnits="userSpaceOnUse"><stop offset="0" stop-color="#7a76a8"/><stop offset="1" stop-color="#8c86c2"/></linearGradient><linearGradient id="linear-gradient-2" x1="34.54" y1="1.18" x2="55.8" y2="77.88" xlink:href="#linear-gradient"/></defs><title>fsms-icon</title><g id="レイヤー_2" data-name="レイヤー 2"><g id="layer_1" data-name="layer 1"><path class="cls-1" d="M78.7,73.29c-2.14,0-2.31,1.27-2.31,2.68,0,5-7.77,8.94-15.38,8.94H29c-7.61,0-14.73-4.06-14.73-9.06,0-1.41-.82-2.56-3-2.56s-3.88,1.14-3.88,2.55C7.42,83.64,17.1,90,29,90H61c11.89,0,21.57-6.36,21.57-14.16C82.58,74.43,80.84,73.29,78.7,73.29Z"/><path class="cls-2" d="M90,41.56C90,35,85.3,29.65,79.34,29.14,78.21,20.58,71.34,14,63.07,14a14.92,14.92,0,0,0-2.9.28C57.25,5.75,49.79,0,41.3,0,31.74,0,23.6,7.38,21.6,17.3a16.49,16.49,0,0,0-4.26-.56C7.78,16.74,0,25.1,0,35.38S7.78,54,17.34,54H38.8v5.49a6,6,0,0,0-5.57,1.83,7,7,0,0,0,0,9.43l7.38,7.93.06.06.4.39.27.22.15.12.1.07a6,6,0,0,0,.9.53l.22.1.37.14.24.08.32.08.22.05.4.07.2,0,.37,0H45l.61,0,.14,0,.46-.08.2,0,.3-.08.56-.21.21-.09.36-.18.18-.11a3.43,3.43,0,0,0,.35-.23l.12-.08a3.67,3.67,0,0,0,.34-.27l.13-.1q.18-.16.36-.36l.07-.06,7.38-7.94a7.05,7.05,0,0,0,0-9.43,6,6,0,0,0-5.57-1.83V54H79.66C85.36,54,90,48.59,90,41.92v-.36ZM54.25,64a3,3,0,0,1,0,4L46.91,76l-.06.06-.13.13-.09.08-.19.15-.24.14s-.2.1-.21.11l-.72.19-.25,0h-.18l-.3,0-.13,0L44,76.6a1.9,1.9,0,0,1-.37-.2l0,0-.12-.1-.09-.07-.12-.11L43.1,76l-7.35-7.9a3,3,0,0,1,0-4,2.58,2.58,0,0,1,3.64-.1,1.66,1.66,0,0,0,1.91.33,1.92,1.92,0,0,0,1.05-1.74V33.76a2.66,2.66,0,1,1,5.3,0V62.52a1.92,1.92,0,0,0,1.05,1.75,1.67,1.67,0,0,0,1.91-.33A2.57,2.57,0,0,1,54.25,64Zm31-22.12c0,3.86-2.51,7-5.6,7H51.2V33.76A6.45,6.45,0,0,0,45,27.09a6.45,6.45,0,0,0-6.2,6.67V48.92H17.34c-6.95,0-12.6-6.07-12.6-13.54s5.65-13.55,12.6-13.55a11.69,11.69,0,0,1,5.21,1.22,2.25,2.25,0,0,0,2.2-.14,2.55,2.55,0,0,0,1.15-2C26.44,12,33.21,5.09,41.3,5.09c7.09,0,13.25,5.28,15,12.84a2.53,2.53,0,0,0,1.16,1.62,2.19,2.19,0,0,0,1.9.18,11.16,11.16,0,0,1,3.74-.66c6.45,0,11.7,5.64,11.7,12.53,0,0,0,.12,0,.15a2.63,2.63,0,0,0,.82,1.92,2.26,2.26,0,0,0,1.88.6,6.35,6.35,0,0,1,1-.07,7.12,7.12,0,0,1,6.85,7.35v.37Z"/></g></g></svg>